P1
10 10
0000000000
0000000000
0000010000
0000010000
0000010000
0000111000
0001000010
0000111100
0000001000
0000000000
