P1
16 9
0000000000000000
0000000000000000
0000000000000000
0000100000100000
0000010001000000
0000111010000000
0000101000000000
0000011000000000
0000000000000000
